<?xml version="1.0" encoding="UTF-8" standalone="no"?>
<!DOCTYPE svg PUBLIC "-//W3C//DTD SVG 1.1//EN" "http://www.w3.org/Graphics/SVG/1.1/DTD/svg11.dtd">
<svg width="100%" height="100%" viewBox="0 0 512 512" version="1.1" xmlns="http://www.w3.org/2000/svg" xmlns:xlink="http://www.w3.org/1999/xlink" xml:space="preserve" xmlns:serif="http://www.serif.com/" style="fill-rule:evenodd;clip-rule:evenodd;stroke-linejoin:round;stroke-miterlimit:2;">
    <g id="Artboard1" transform="matrix(1.323,0,0,2.84444,0,-1268.62)">
        <rect x="0" y="446" width="387" height="180" style="fill:none;"/>
        <g transform="matrix(1.1432,0,0,0.53172,26.0501,451.948)">
            <path d="M80.09,254.67C75.25,254.67 71.05,252.95 67.49,249.51C63.92,246.08 62.14,241.81 62.14,236.72L62.14,79.04C62.14,74.2 63.92,70.07 67.49,66.63C71.05,63.19 75.25,61.47 80.09,61.47C84.93,61.47 89.06,63.19 92.5,66.63C95.93,70.06 97.65,74.2 97.65,79.04L97.65,236.72C97.65,241.81 95.93,246.08 92.5,249.51C89.06,252.95 84.92,254.67 80.09,254.67ZM150.72,316.14C145.88,316.14 141.75,314.36 138.31,310.8C134.87,307.23 133.15,303.03 133.15,298.2L133.15,17.57C133.15,12.99 134.87,8.91 138.31,5.35C141.74,1.79 145.88,0.01 150.72,0.01C155.56,0.01 159.76,1.79 163.32,5.35C166.88,8.92 168.66,12.99 168.66,17.57L168.66,298.2C168.66,303.03 166.88,307.23 163.32,310.8C159.76,314.36 155.56,316.14 150.72,316.14ZM17.38,193.2C12.59,193.2 8.5,191.5 5.11,188.1C1.71,184.7 0.01,180.49 0.01,175.45L0.01,140.32C0.01,135.53 1.71,131.44 5.11,128.05C8.51,124.65 12.6,122.95 17.38,122.95C22.16,122.95 26.38,124.65 30.04,128.05C33.69,131.45 35.52,135.54 35.52,140.32L35.52,175.65C35.52,179.57 34.27,183.5 31.67,186.42C27.66,190.93 22.89,193.19 17.39,193.19L17.38,193.2ZM212.67,253.66C207.89,253.66 203.8,251.96 200.39,248.55C196.99,245.15 195.29,240.93 195.29,235.89L195.29,79.86C195.29,75.07 196.99,70.98 200.39,67.58C203.79,64.18 207.89,62.47 212.67,62.47C217.45,62.47 221.68,64.17 225.33,67.58C228.98,70.98 230.81,75.07 230.81,79.86L230.81,235.9C230.81,240.94 229.05,245.16 225.52,248.56C222,251.96 217.71,253.67 212.67,253.67L212.67,253.66ZM275.19,193.2C270.41,193.2 266.25,191.5 262.73,188.1C259.21,184.7 257.44,180.49 257.44,175.45L257.44,140.32C257.44,135.53 259.2,131.44 262.73,128.05C266.26,124.65 270.41,122.95 275.19,122.95C279.97,122.95 284.13,124.65 287.65,128.05C291.18,131.45 292.94,135.54 292.94,140.32L292.94,175.45C292.94,180.48 291.18,184.7 287.65,188.1C284.13,191.5 279.97,193.2 275.19,193.2Z" style="fill-rule:nonzero;"/>
        </g>
    </g>
</svg>
